<mxfile host="app.diagrams.net" modified="2023-10-30T17:29:40.375Z" agent="Mozilla/5.0 (Macintosh; Intel Mac OS X 10_15_7) AppleWebKit/537.36 (KHTML, like Gecko) Chrome/118.0.0.0 Safari/537.36" version="21.8.2" etag="B4o8gMH2AyLNZhoIpzLC" type="github">
  <diagram name="Page-1" id="X8uHJfYp81-Yo7OOz4H1">
    <mxGraphModel>
      <root>
        <mxCell id="0" />
        <mxCell id="1" parent="0" />
      </root>
    </mxGraphModel>
  </diagram>
</mxfile>
